# xmcd
#
# Track frame offsets:
#	150
#	37026
#	67004
#	97578
#	169860
#	201997
#
# Disc length: 2993 seconds
#
# Revision: 1
# Processed by: cddbd v1.5.1PL0 Copyright (c) Steve Scherf et al.
# Submitted via: audiograbber 1.82.01
#
DISCID=4d0baf06
DTITLE=Johnny Winter  - 1975-06-07 - City Park Stadium,New Orleans, LA
DYEAR=1900
DGENRE=
TTITLE0=Johnny Winter - Rock and Roll People
TTITLE1=Johnny Winter - Roll With Me
TTITLE2=Johnny Winter - Bony Maronie
TTITLE3=Johnny Winter - Sweet Papa John
TTITLE4=Johnny Winter - Jumpin' Jack Flash
TTITLE5=Johnny Winter - It's All Over Now
EXTD=
EXTT0=
EXTT1=
EXTT2=
EXTT3=
EXTT4=
EXTT5=
PLAYORDER=
